<svg id="Group_86" data-name="Group 86" xmlns="http://www.w3.org/2000/svg" xmlns:xlink="http://www.w3.org/1999/xlink" width="151.461" height="117.68" viewBox="0 0 151.461 117.68">
  <defs>
    <clipPath id="clip-path">
      <rect id="Rectangle_43" data-name="Rectangle 43" width="151.461" height="117.68" fill="#f5f4ee"/>
    </clipPath>
  </defs>
  <path id="Path_1" data-name="Path 1" d="M19.5,20.443l3.7-.352,2-.19,1.968-.187,3.877-.368.377,3.965-.176.017-3.7.351.187,1.968.19,2,.025.264.3,3.172.05.529.162,1.7.181,1.909,3.7-.352.176-.017.377,3.966-3.877.369-1.968.187-2,.19-3.7.352-.377-3.966.264-.025,3.437-.326-.182-1.909-.162-1.7-.05-.529-.3-3.172-.025-.264-.19-2-.187-1.968-3.436.327-.264.025Zm26.318-2.5,3.877-.368,1.851,19.474-3.877.368-4.611-9.224.91,9.575L40,38.145l-1.85-19.474,3.965-.377,4.642,9.547ZM67.01,0,0,6.369,4.851,57.412l67.01-6.368Z" transform="translate(0 -0.001)" fill="#f5f4ee"/>
  <g id="Group_2" data-name="Group 2">
    <g id="Group_1" data-name="Group 1" clip-path="url(#clip-path)">
      <path id="Path_2" data-name="Path 2" d="M526.016,318.559l-1.7.162.187,1.968.19,2,1.7-.162a1.809,1.809,0,0,0,1.423-.773,2.131,2.131,0,0,0,.384-1.414,2.058,2.058,0,0,0-.644-1.317,1.852,1.852,0,0,0-1.541-.461" transform="translate(-401.065 -243.668)" fill="#f5f4ee"/>
      <path id="Path_3" data-name="Path 3" d="M44.448,284.865l125.074-11.886-5.162-54.325L23.612,232.029l3.673,38.651a15.745,15.745,0,0,0,17.164,14.184M56.3,250.388l-.264.025-3.7.352-1.968.187-1.733.165.187,1.968.19,2,1.733-.165,1.968-.187.025.264.3,3.172.05.529-1.968.187-1.733.165.162,1.7.181,1.909,1.733-.165,1.968-.187,3.7-.352.264-.025.377,3.966-3.965.377-1.968.187-1.733.165L46.146,267l-.377-3.966-.181-1.908-.162-1.7-.377-3.965-.19-2-.187-1.968-.377-3.965,3.965-.377,1.733-.165,1.968-.187,3.965-.377Zm20.037,13.745-3.965.377-2.346-4.727-1.531,5.1-3.7.352,2.791-9.927-4.642-9.547,3.7-.352,2.463,4.715,1.414-5.084,3.965-.377-3.024,10.276Zm16.973-17.262-.264.025-3.7.352-1.968.187-1.733.165.187,1.968.19,2,1.733-.165,1.968-.187.025.264.3,3.172.05.529-1.968.187-1.733.165.162,1.7.181,1.909,1.733-.165,1.968-.187,3.7-.352.265-.025.377,3.966-3.965.377-1.968.187-1.733.165-3.965.377-.377-3.966-.181-1.909-.162-1.7-.377-3.965-.19-2-.187-1.968-.377-3.965,3.965-.377L87,243.47l1.968-.187,3.965-.377Zm18.472-1.919-.181.017-3.8.362.192,2.022.195,2.052.04.422.321,3.381.014.151.2,2.053.192,2.022L109.29,261l.023.241-2.022.192-1.781.169-.023-.241-.339-3.562-.192-2.022-.2-2.053-.014-.151-.321-3.381-.04-.422-.2-2.052L104,245.692l-3.8.362-.272.026-.361-3.8,4.075-.387,1.781-.169,2.022-.192,3.984-.379Zm18.537-1.6-.264.025-3.7.352-1.968.187-1.733.165.187,1.968.19,2,1.733-.165,1.968-.187.025.264.3,3.172.05.529-1.968.187-1.733.165.162,1.7.181,1.909,1.733-.165,1.968-.187,3.7-.352.264-.025.377,3.966-3.966.377-1.968.187-1.733.165-3.965.377L119.788,256l-.181-1.909-.162-1.7-.377-3.965-.19-2-.187-1.968-.377-3.965,3.965-.377,1.733-.165,1.968-.187,3.966-.377Zm18.53,5.1a3.953,3.953,0,0,1,.721,1.3,10.991,10.991,0,0,1,.479,2.658c.113,1.221.19,2.444.294,3.666,0,.058.083,1.021.1,1.019l-3.965.377-.025-.265-.352-3.7-.181-1.909a1.6,1.6,0,0,0-.631-1.185,2.134,2.134,0,0,0-1.528-.33l-1.7.162.162,1.7.181,1.909.352,3.7.025.265-3.877.368-.377-3.966-.181-1.909-.162-1.7-.377-3.965-.19-2-.187-1.968-.377-3.965,3.877-.368c2.373-.225,4.783-.139,6.591,1.66a5.854,5.854,0,0,1,1.629,4.043,5.656,5.656,0,0,1-.193,1.673,8.507,8.507,0,0,1-.707,1.583l-.183.35c-.016.031.27.29.3.321.1.095.2.184.3.279q.1.1.184.2" transform="translate(-18.062 -167.256)" fill="#f5f4ee"/>
    </g>
  </g>
</svg>
